<mxfile host="65bd71144e">
    <diagram id="HIP3nbAZw_EuaXWnEj3U" name="Page-1">
        <mxGraphModel dx="1132" dy="740" grid="1" gridSize="10" guides="1" tooltips="1" connect="1" arrows="1" fold="1" page="1" pageScale="1" pageWidth="850" pageHeight="1100" math="0" shadow="0">
            <root>
                <mxCell id="0"/>
                <mxCell id="1" parent="0"/>
                <mxCell id="7" value="http://ics2o.mths.ca" style="swimlane;whiteSpace=wrap;html=1;fillColor=#dae8fc;strokeColor=#6c8ebf;" parent="1" vertex="1">
                    <mxGeometry x="40" y="80" width="864" height="490" as="geometry"/>
                </mxCell>
                <mxCell id="8" value="&lt;font style=&quot;font-size: 20px;&quot;&gt;Area of Trapezoid, with JS&lt;/font&gt;" style="text;html=1;align=center;verticalAlign=middle;resizable=0;points=[];autosize=1;strokeColor=none;fillColor=none;" vertex="1" parent="7">
                    <mxGeometry x="20" y="40" width="260" height="40" as="geometry"/>
                </mxCell>
                <mxCell id="9" value="&lt;font style=&quot;font-size: 15px;&quot;&gt;Formula&lt;/font&gt;&lt;div&gt;&lt;font style=&quot;font-size: 15px;&quot;&gt;A = [ (a+b) / 2 ] h&lt;/font&gt;&lt;/div&gt;" style="text;html=1;align=left;verticalAlign=middle;resizable=0;points=[];autosize=1;strokeColor=none;fillColor=none;" vertex="1" parent="7">
                    <mxGeometry x="30" y="80" width="130" height="50" as="geometry"/>
                </mxCell>
                <mxCell id="10" value="&lt;span style=&quot;font-size: 15px;&quot;&gt;Please enter integers for dimensions&lt;/span&gt;" style="text;html=1;align=left;verticalAlign=middle;resizable=0;points=[];autosize=1;strokeColor=none;fillColor=none;" vertex="1" parent="7">
                    <mxGeometry x="30" y="140" width="260" height="30" as="geometry"/>
                </mxCell>
                <mxCell id="11" value="&lt;font style=&quot;font-size: 16px;&quot;&gt;a base:&lt;/font&gt;&lt;div&gt;&lt;font style=&quot;font-size: 16px;&quot;&gt;b base:&lt;/font&gt;&lt;/div&gt;&lt;div&gt;&lt;font style=&quot;font-size: 16px;&quot;&gt;height:&lt;/font&gt;&lt;/div&gt;" style="text;html=1;align=left;verticalAlign=middle;resizable=0;points=[];autosize=1;strokeColor=none;fillColor=none;strokeWidth=2;" vertex="1" parent="7">
                    <mxGeometry x="30" y="180" width="80" height="70" as="geometry"/>
                </mxCell>
                <mxCell id="12" value="" style="rounded=1;whiteSpace=wrap;html=1;" vertex="1" parent="7">
                    <mxGeometry x="90" y="190" width="140" height="10" as="geometry"/>
                </mxCell>
                <mxCell id="13" value="" style="rounded=1;whiteSpace=wrap;html=1;" vertex="1" parent="7">
                    <mxGeometry x="90" y="210" width="140" height="10" as="geometry"/>
                </mxCell>
                <mxCell id="14" value="" style="rounded=1;whiteSpace=wrap;html=1;" vertex="1" parent="7">
                    <mxGeometry x="90" y="230" width="140" height="10" as="geometry"/>
                </mxCell>
                <mxCell id="15" value="&lt;span style=&quot;font-size: 16px;&quot;&gt;mm&lt;/span&gt;&lt;div&gt;&lt;span style=&quot;font-size: 16px;&quot;&gt;mm&lt;/span&gt;&lt;/div&gt;&lt;div&gt;&lt;span style=&quot;font-size: 16px;&quot;&gt;mm&lt;/span&gt;&lt;/div&gt;" style="text;html=1;align=left;verticalAlign=middle;resizable=0;points=[];autosize=1;strokeColor=none;fillColor=none;strokeWidth=2;" vertex="1" parent="7">
                    <mxGeometry x="240" y="180" width="50" height="70" as="geometry"/>
                </mxCell>
                <mxCell id="16" value="&lt;font style=&quot;font-size: 15px;&quot;&gt;Calculate Area&lt;/font&gt;" style="rounded=1;whiteSpace=wrap;html=1;" vertex="1" parent="7">
                    <mxGeometry x="30" y="290" width="130" height="30" as="geometry"/>
                </mxCell>
                <mxCell id="17" value="&lt;span style=&quot;font-size: 15px;&quot;&gt;Area is: 40 mmÂ²&lt;/span&gt;" style="text;html=1;align=left;verticalAlign=middle;resizable=0;points=[];autosize=1;strokeColor=none;fillColor=none;" vertex="1" parent="7">
                    <mxGeometry x="30" y="350" width="130" height="30" as="geometry"/>
                </mxCell>
                <mxCell id="18" value="" style="shape=image;verticalLabelPosition=bottom;labelBackgroundColor=default;verticalAlign=top;aspect=fixed;imageAspect=0;image=data:image/png,iVBORw0KGgoAAAANSUhEUgAAAzgAAAGLCAYAAAALTTdwAAAAAXNSR0IArs4c6QAAIABJREFUeF7t3Qn4FsVhx/ExgPfVaKKtBz6SxtYkaqSgqIAXRhQeEUXwxoiKsYm3Uo9YjVZNUTEeqEUFjz5oUVFM8UDkMKCgNEkTq6YJMZFEHzVeiCKHfeZN980wzOzM3rvzfv/P06fm/+7uzHxm3j/729mdXefzzz//XPCDAAIIIIAAAggggAACCAQgsA4BJ4BepAkIIIAAAggggAACCCDQEiDgMBAQQAABBBBAAAEEEEAgGAECTjBdSUMQQAABBBBAAAEEEECAgMMYQAABBBBAAAEEEEAAgWAECDjBdCUNQQABBBBAAAEEEEAAAQIOYwABBBBAAAEEEEAAAQSCESDgBNOVNAQBBBBAAAEEEEAAAQQIOIwBBBBAAAEEEEAAAQQQCEaAgBNMV9IQBBBAAAEEEEAAAQQQIOAwBhBAAAEEEEAAAQQQQCAYAQJOMF1JQxBAAAEEEEAAAQQQQICAwxhAAAEEEEAAAQQQQACBYAQIOMF0JQ1BAAEEEEAAAQQQQAABAg5jAAEEEEAAAQQQQAABBIIRIOAE05U0BAEEEEAAAQQQQAABBAg4jAEEEEAAAQQQQAABBBAIRoCAE0xX0hAEEEAAAQQQQAABBBAg4DAGEEAAAQQQQAABBBBAIBgBAk4wXUlDEEAAAQQQQAABBBBAgIDDGEAAAQQQQAABBBBAAIFgBAg4wXQlDUEAAQQQQAABBBBAAAECDmMAAQQQQAABBBBAAAEEghEg4ATTlTQEAQQQQAABBBBAAAEECDiMAQQQQAABBBBAAAEEEAhGgIATTFfSEAQQQAABBBBAAAEEECDgMAYQQAABBBBAAAEEEEAgGAECTjBdSUMQQAABBBBAAAEEEECAgMMYQAABBBBAAAEEEEAAgWAECDjBdCUNQQABBBBAAAEEEEAAAQIOYwABBBBAAAEEEEAAAQSCESDgBNOVNAQBBBBAAAEEEEAAAQQIOIwBBBBAAAEEEEAAAQQQCEaAgBNMV9IQBBBAAAEEEEAAAQQQIOAwBhBAAAEEEEAAAQQQQCAYAQJOMF1JQxBAAAEEEEAAAQQQQICAwxhAAAEEEEAAAQQQqL3AN7/5zdg6/td//Vft20AFyxEg4JTjTCkIIIAAAggggAACGQQIOBnwOmxXAk6HdTjNRQABBBBAAAEEmihAwGlir1VTZwJONe6UigACCCCAAAIIIJBAgICTAKvDNyXgdPgAoPkIIIAAAggggEATBAg4TeiletSRgFOPfqAWCCCAAAIIIIAAAjECBByGh68AAcdXiu0QQAABBBBAAAEEKhMg4FRG37iCCTiN6zIqjAACCCCAAAIIFCNgCxF33XWXcAWMYmr0l6O6ymeZ6KJ7oDnHJ+A0p6+oKQIIIIAAAgggUKgAAadQXg5ekgABpyRoikEAAQQQQAABBOouQMCpew9RPx8BAo6PEtsggAACCCCAAAIpBR555BFxxRVXeO394osvii5dunhtW8RGoQUc121tX//618W9995bBCXHrFCAgFMhPkUjgAACCCCAQJgCo0ePFi+88ELqxs2bN09ssMEGqfdPu2MoAadXr15i5cqV3gxbbLGFmDFjhvf2bFhvAQJOvfuH2iGAAAIIIIBAgwTOP//83E6U99prL3HLLbeU2vqmB5yPPvpI9OvXL7UZCxWkpqvVjgScWnUHlUEAAQQQQACBJgu4bolK07YyT7qbHHAWLFggevfunYZ4jX3K9M5cWQ5gFCDgMDAQQAABBBBAAIGcBIoIOA8++KD427/925xqGH+YJgecPIEIOXlqln8sAk755pSIAAIIIIAAAgELFBFyyjrhJuD8eWButNFG4rnnngt4lIbdNAJO2P1L6xBAAAEEEECgZAFbSNAXDpg6daq4/PLLvWq3zTbbiMcff9xr2ywbEXD+ordw4ULRtWvXLJzsW5EAAacieIpFAAEEEEAAgTAFli1bJvbee2/Ro0cPMWXKFK9G+sz6ZJnFWbp0qbMeM2fOFJdddplxuz322EOMHTvWeYyNN97YuU3aDXyMomOfffbZ4oQTTjAWJVe3k6vcuX66desm5HM9/DRPgIDTvD6jxggggAACCCAQoIDrBD5LwHEdOy/OLHV01cG3Db518Dme77FcdefzcgUIOOV6UxoCCCCAAAIIIGAUuOqqq2JnfGbPni023XTTVHo+J/OpDqztVGQg8GlD0vJdxzz22GPFeeedlwcNxyhRgIBTIjZFIYAAAggggAACcQJxJ9xHHnmkuPjii1MBuk7kUx3UsFPSgJGkXFcbtt56azF9+vQkhxT333+/89a7ItuUqLJs7C1AwPGmYkMEEEAAAQQQQCC9gHwJ5TXXXCO22247MWrUKOMD7K6T+LQn267jpm/VmnumrZ9P+a42pC27qOP6tIltihEg4BTjylERQAABBBBAoMMFHnvsMetD+zrN7bff3npJZVEn267j5tVVaUOGT/muNqQt+6yzzhLy9j/bT9rj+rSJbYoRIOAU48pREUAAAQQQQKBDBeQKXrNmzSqk9WlPtl3hIK/Kpq2fT/muNqQt+5133hEDBgwg4Ph0QkO2IeA0pKOoJgIIIIAAAgjUX8B1Ep61BWlP4n3KXbJkiRg0aJBx02HDhomLLrrI5zCFbeOyzWITd+wsxy0MgwPHChBwGCAIIIAAAggggEAOAq4T8ByKEEWfbDf5RZ9ZbAg4eYzO+hyDgFOfvqAmCCCAAAIIINBQgeHDh4vXXnut8NpnOYn3qVwnBpzly5eLPffc08pTtLlPv7BNMgECTjIvtkYAAQQQQAABBNYScM3ebLzxxmLu3LlWuUcffVRcfvnl4vPPP4/VLfpkuxMDzrx588QZZ5xBwAnoe03ACagzaQoCCCCAAAIIlC9w2GGHid/97ne5BBNXUCLg2JnT2uy+++6xwTLtccsfiZQYCRBwGAsIIIAAAggggEAGgTxDSZ7HStOkJs/gTJw4Uey6666Jm121eeIKs4NTgIDjJGIDBBBAAAEEEEDALhB3gnzCCScIuWy070/VJ9tNDjjSOOlsS9++fcXSpUut3bPOOuuIRYsW+XYf29VEgIBTk46gGggggAACCCDQTIG4UPLP//zPQt7C5vtDwEkXJKO9dt55Z3H//fd7cctgIwNO3M+cOXPEJpts4nU8NqqPAAGnPn1BTRBAAAEEEECggQJxoWTrrbcW06dP92rVqaeeKhYuXBi7bdIZCq+ClY2aPoMjm9K/f38xbty42KY/9dRT4sILL3TyFO3trAAbpBIg4KRiYycEEEAAAQQQQODPAnnMurz++utiyJAhTtKiT7hDCDgR4k033ST22WefNUxfeeUVIW8bXLFihdN6iy22EDNmzHBuxwb1EyDg1K9PqBECCCCAAAIINEjgyCOPFL/+9a9ja/zkk0+KL3/5y8ZtBg4cKN58802vFhNwvJhy2aho61wqyUGMAgQcBgYCCCCAAAIIIJBRwDWLk/Hw7d07+aS7LGOJ/YMf/EAMGjQor27jOCULEHBKBqc4BBBAAAEEEAhPwGcWJ49WE3DyUHQfo5Od3Tr134KAU/8+ooYIIIAAAggg0AAB15LDriZstdVW4q233ordrJNPvF0zONKmV69eYuXKlS5q6+cbb7yxmDt3bur92bEeAgScevQDtShRYPTo0eIXv/iF+Pjjj9coVa51v99++4nrrruuxNpQFAIIIIBASAKuk3BbW7fffnvx6KOP5rJgQUiealtctlH4c21n89lyyy3F008/HSpfR7WLgNNR3d3ZjT3wwAPFu+++64XQyVfIvIDYCAEEEEDAKvCrX/1KHHXUUd5Czz//vFhvvfVa27tOzjv536ckNj//+c/FiSee6N0HnezqjdSgDQk4DeosqppN4LzzzhPPPPOM90H4Y+dNxYYIIIAAAhaBPn36iOXLl4vPP/+8vUXXrl2F/L/58+fjVrCAdN9rr72MfbDZZpuxDHTB/lUdnoBTlTzlViIQXf2Rf+x+9KMfiS5duoiPPvpI9OvXb636XHDBBeLoo4+upJ4UigACCCCAAAIIIJBOgICTzo29Giogr6JFtwHoTRg+fLh47bXX1vg1szgN7WiqjQACCCCAQE0E4m6t4zyjmE4i4BTjylEbKqD/EeIPT0M7kmojgEBmAddqVI899pjYbrvtMpfDARAIXYCAU34PE3DKN6fEGgjcfffdrVvU5M/pp58uTjnlFCFXUSPg1KBzqAICCFQu8OGHH4r+/fvH1mOjjTYSzz33XOV1pQII1F2AgFN+DxFwyjenxAoFXCuw6FVjBqfCzqJoBBCoTMD3byV/IyvrIgpukAABp/zOIuCUb06JFQn4/oOtVo9/vCvqLIpFAIHKBO644w4xfvx4r/L5G+nFxEYdLkDAKX8AEHDKN6fECgT0Py6mNxWffPLJYtGiRWvUjn+8K+gsikQAgUoFklwMkn8z5e29/CCAgF2AgFP+6CDglG9OiRUI+D5b47tdBU2gSAQQQKBwgX333Vd88MEH3uXss88+4qabbvLeng0R6EQBAk75vU7AKd+cEksWWLx4sRg6dKjXzAwBp+TOoTgEEKiVQJLZG1lx+aLEWbNm1aoNVAaBugkQcMrvEQJO+eaUWIGAT3CZOHGiuPHGG72CUAVNoEgEEECgUIHevXuLFStWJC6DW3kTk7FDhwmkCThvvfVWS0leRFh//fU7TCx7cwk42Q05QgME9D8u8mWfs2fPbr308+OPPxbytoyVK1eu1RL+4W5A51JFBBDIRSDp7E1UaJF/J6dNm5ZL2/SDDB48uJDjclAETAK+Aefss8+OnREdO3asOOCAA0D2ECDgeCCxSfMFJk+eLK699trEDSnyH+7ElWEHBBBAoCCBtOFGVmf+/PmFXWHOUq84qpkzZ4q/+qu/KkiTwyKwpoAr4KxevVr07NnTm41zEzcVAcdtxBaBCMhlT+Xyp7Yf+QfD51a2QDhoBgIIINASWLp0qejbt2+iv436xkWdcBFwGKQhCMSN46lTp4ohQ4YkbmZR37nEFanpDgScmnYM1SpO4LbbbhNz584Vy5cvF9tss40455xzRPfu3YsrkCMjgAACNRaIO/nae++9xc033yz69OkjPv3009gQVEQTCThFqHLMsgWKGMebb765ePbZZ8tuSmPKI+A0pquoKAIIIIAAAvkKyPBy5513OoPLXXfdFbscdFFXk4s4MZSN5Ra1fMcRR4sXKGocF/W9C6E/CTgh9CJtQAABBBBAIIVA3InXEUccIS655JLWUV3PCBR1olXUiSEBJ8VgYZfUAr7jeIstthAXXHBB6+6Sf/mXfxEvv/yys8yivnvOgmu+AQGn5h1E9RBAAAEEEChCwHXSpZ84xW0vb/U9/vjji6hmLY+5cOFC8ctf/rKWdaNSxQqMHDkycQGu71rXrl2FHFOmn169ehlXeY22JeCYu4OAk3iYsgMCCCCAAALNF4g76ZoyZYro0aPHGo2M236jjTYSzz33XPNRPFtw3HHHEXA8rULbLE2gcAUc1zFdq7CFZpxHewg4eShyDAQQQAABBBokcPDBB4voRYKmaptOuLKepDWIx1lVAo6TKNgNXGHE1PCsAeXcc89tPTfm+10NFj9Bwwg4CbDYFAEEEEAAgRAE0pxwyZci77PPPtbmpznxa6olAaepPZe93mnGeZrvm15T2zEmTJiQ6B062QWacQQCTjP6iVoigAACCCCQi8Duu+8uPv/8c+OxNthgAzFv3jxrOXEnanPmzBGbbLJJLnWs+0EIOHXvoeLqR8ApzjbPIxNw8tTkWAgggAACCNRY4JNPPhF77bVX6lkYblOrcedStdoKMINTftd0ZMCJe5t9+V1AiQggUAeBE044Qay//vp1qAp1QKAwgbgTLfkyz1tvvTW2bHmLmrxVzfaT5up2XIGuQJUWimWi08qxXxoBAk4atWz7dFzAkau8fPe7382mxt4IIBCkQN4nZ0Ei0ajGClx66aXi8ccfzxRO5BK5P/vZzzIdIwkgASeJFtvWVYCAU37PdFzAOfbYY71enFR+V1AiAgjUQYCQU4deoA5FCLjCQs+ePZ3Fyne/fPrppwQcpxQbIPAXAQJO+aOh4wKOaZBdddVVYsMNNyxfv8NKlG/C/sIXvtBqtfrfSRmy7Ju0rKTby7rJH7Wd6jHk76Nt9GOn/SxpHUPfPhof+v9Xx130mVx6U//Zeeedxf333x86E+3rMIEjjjhC/OY3vym81ePGjRP9+/fPrRxXKEtbELeopZVjvzQCBJw0atn2IeAI0Vpb3LaiTDZe9kagXgLrrLOOcaxHv1c/l/9t+pHflegz9b+LbGnScny333///Y3VHjx4sLjiiiuKbBLHRqBUgaKCgqkRec6CFlVvAk6pw6/jCyPglD8EOirgyKu2pil4Ak75A48S6yHgCjyylragY2tBFC70kOEbOlwyeR1HlqMGnFGjRgn5PoHoJ8+TNFeb+ByBIgUGDRoklixZUmQRaxw7z+/O/PnzC6m3XFCBHwTKEiDglCX9l3I6KuD07t1brFixYi1lAk75A48S8xWwBZWoFP1z0/+W25rCQzS7mSTo6Pv4hBLbNq59bXX2qa8acOTfgSFDhogPP/yQkJPv8ORoFQsUNQtia1aeAadiOopHIBcBAk4ujIkO0lEBxzbACDiJxgwb10xAv61MnUFRq6qe8MfdZhYXGFxhIyovyW1svscsgl0POLIM9XebbbaZmDVrVhFFc0wEShEoO9zIRk2dOlV07969lPZRSLECixcvFmeffbZ4/fXXYwuS/76cdNJJrFJrUSLgFDtOTUcn4PAMTvmjjhJbAq5Zl4jJtJ3td3KfpLeI6c+f+cx8uLrQVgfXfq7P8w5DpoDTpUuXNR6S3nPPPcX48eNdVeNzBGonsGzZMrH33ntb67Vo0aLEt6BGB4s7Ydtpp53E5MmTa+dBhfwFvv3tb4u0M3FbbrmlePrpp/0L64AtCTjld3JHBpyNNtpojReVMYNT/sCjxD8LxIUc3+dj9Bkb04yOHpZsszlRQIrqFu1XVGCxlVfW+DAFHFm2vGp58sknt6sxe/Zssemmm5ZVLcpBIBeBuJMqOcMiZ1rS/rhmhtKeHKetD/vlI/A///M/4phjjsnlYI8++qjYfvvtczlW0w9CwCm/Bzsm4Dz77LPinHPOaQn/3d/9nXjllVfa2gSc8gdep5boO2ujhx+f/fSZF9dsR5ZnV9T+i3tGx1WHqseBLeDIep133nlCXuGOfjhhq7q3KD+JwG233SZuv/126y5ZxzMBJ0lvNGPbs846S8iLOXn+jB49Wpx22ml5HrKRxyLglN9tHRNw1AUGnnnmGXHAAQcQcMofb5RoEPANL2qQ0P9bX+Y5bonnKDz5dEbaB/9Nx65j2IkLOLINAwYMEKtWrSLk+AwWtqmVQNwJ1eabby7kRb8sP/L7vPvuuxcWoLLUjX2TC8hV5eJe4Jr8iH/Z48orrxSHHnpolkM0fl8CTvld2DEBRx1ccsZGP7HRn0MovysoMRQBn8BiaqsaUuTn6pg0vXfGd3UzV0iJCx5ZQkmRt7XlNVZcAUe677fffu3idthhB/HII4/kVTzHQaAQgeHDh4vXXnut8PARd9J24403in79+hXSPg6ar0CR4SaqadYZw3xbXP7RCDjlmxNwWGSg/FEXcIlJFgQwzcioNHEv3UwaHkwzPno3+IQZn23SHLeqIeEKOLJeXbt2XeNETd7GceKJJ1ZVZcpFwClwxBFHWLf54Q9/KHr06OE8hs8GceXI/R966CGfw7BNhQJZFhNIWu1ODjlx3xXf74ntGHIRnC9/+ctJuyP47Tsi4KjP38jVXeRgOOyww9qdKx+EYwYn+LFeSQPjHvi3Vcg0k+Na2Sxp8Ei6vVpXU7hKGrgq6QxDofrfAVu9pkyZIm699db2x538D3Vd+o56IIBAdgHXs1R6Cerfvs8++0zsscce3pXg76Y3FRvmINARAWfw4MHijTfeaHHJ52/4QUAVSHtLmUlRfxYm2sZ0i5n8zHSbWdKwkDaspN2vU0fPwIEDxfLlywk5nToAaDcCgQq4Qs6cOXPEJptsEtt61zHkzmPGjBHy9kl+EChDoCMCjvrFky/tUx8aLgOZMpohkGbJZlvLXLeq6cs0y+PELQxg+swWhHyDi+92zei9cmqp3tImb11buHBhOQVTCgIIIFCggCmgdOvWTSxYsMC7VJ+QwyyONycbZhTouIDDDE7GEdNBu7sCjz4DY7rN0XVrmYlTDR5JZ3PU48XtS7hJN5D1l4DusssuYtKkSekOxl4IIIBAjQTUgLL11luL6dOnJ6rd1VdfLR588MHYfQg4iUjZOINARwWcddddN/EXNoMtu1YskPTWM9usixpkTE1Sbz+L+1z/TA8gpmCThlC/7Y0wk0bRvs+vf/1rccopp7Q3+MlPfiI23HDDfAvhaAgggEAFAjLk7LrrrmLixImpSnfN4hBwUrGyUwqB4APO97//fTFt2rQWzaBBg8TZZ5+dgoldOlXAtZJZ5OKzMIAeNFzLN/uYZ5nh8Tk+25gFRo0aJX7zm9+0P+QfbUYKAgggIAQBh1FQF4HgAw7P39RlqJVfD9sMjuvWsyQr6umzN/piAkkDSNLZliQhKcm25fdW80pUFx3geZzm9R81RgCB/AUIOPmbcsR0Ah0VcKLnb+RJKC/6TDdgmrhXklvV4hYH0J+ncYUR1+dpLYs6btr6NHk/n/fg2NqnvwSUkNPkkUDdEUAgq8Dq1atFz549Yw/DbHdWZfb3FeiYgCMfDn7qqadaLgQc3+FR7+2SBBdXS+LeVxMXbHxvO5Plm5aEdtUryfFdx+LztQWyBBx5NP0loJdddpkYMmQI1AgggEDHCYwYMUK8+uqrBJyO6/l6NjjogCNX85Cresifww8/XPzjP/4jAaee4zDXWrke+o8rLM2qZ1F40Zd+Trrsc1oEZnTSyom1ZnLTHOm+++4Td911V3tXrlCmUWQfBBBouoDr9rQLLrhAHH300U1vJvVviEDQAUeGmt/+9retrpAvqlqxYgUBpwED0zabkmbGRn34X322Rj+W7VmaiMsnRKgzNK7ZGt932JjK9a1L2rDWgCGSWxWzzuBEFeEloLl1CQdCAIEGCvTu3bt9jmWrPhd/GtixDa5y0AFHvZrw7LPPCnl/qPzhFrV6jdgswcXWkriQJPfRFxKwzb4kfTCfW8rqNbZctckr4MjxM2DAALFy5cpWkeuvv76YP3++q3g+RwABBBovcP3114t7773X2Q4CjpOIDXIU6JiAo77gk4CT4wgq+FC2281cz8yoMyRqFfUZnTSzHK4ZFP19NlGoVuvhOoaNNe1+BXdTYw+fV8CRAF/4whfEvvvu27b46le/Kh544IHG2lBxBBBAwCVwxRVXiEceecS1mSDcOInYIGeBYAPOsmXLxN57793ikg8CP/nkk206Ak7Oo6ikw5luK9Nv9YoLNkkCRlyQcN1+FpXjE0Z8timJtyOLyTPgSMDf//734sQTT2xbzp07V2y88cYdaUujEUAgbIHZs2eLs846y9nIr33ta0I+q8gPAmUKBBtw1NvTJk2aJLbddlsCTpkjK8ey4mZx9DChP2eTJGzoVfYNMnI/n1mbrCSEoayCa++fd8CRJRxzzDHizTffbBfGlcv8+40jIoBAtQLHHXec+OUvf+mshPz3e9GiRc7t2ACBvAU6IuCoz99IQGZw8h5G+R3P9jyObfYm6k9TOHHdfqYvClD0qmcElPzGSV5HKiLgyLqpiw5069ZNLFiwIK8qcxwEEECgUgH59029iBNXGS7wVNpVHV14RwScmTNnrvFQOQEn/ZhPsyBAXGm+x1NncUzP0fiEB9vKZXHhyBSC0hwnvTh7FilQVMDRn8dh0YEie5FjI4BAWQKupaDVehBuyuoVyjEJBB9wttxyy7Ue9CXgZP8yxD3kbxxo66zT+rVpKWV9e/3Y0eeuW8biPk8SgNT6+OwXp5l1/+w9xRHiBIoKOLJM+XLh/v37t4uXD+MOHjyYDkEAAQQaKUC4aWS3dWylgww4cuWia665ptWp6gs+o14m4JQz3n1vN5O1cd1O5hMikoSJJNuWo0UpVQgUGXBkeyZOnCjuueeedtO4ollFL1MmAghkEZCLNI0ZM8brEHJRFbm4Cj8IVC0QZMBRrzLIVT6id1MQcLIPN9/QEvfMjNoPtvfRpJmNcc3wuFpv2p8g5FJr9udFBxypw0tAmz1GqD0CnSyQZNZms802E7NmzepkLtpeI4HgA476/psauQddFdczMvqKY6YwpAOZ9skL0bUkdJbZpbzqyHGaKyDHz3777dduwAYbbCDmzZvX3AZRcwQQ6AiBffbZR3z88cdebZ08ebLYaaedvLZlIwTKECDglKEcWBmm529sSznLptueqYlY0s6SpN0vLjypn+V1/MC6n+akENAXHdhzzz3F+PHjUxyJXRBAAIHiBZLM3HDrbfH9QQnJBYILOHfeeae4+eabWxK9evVqP4uTnIY9IgGflc7iQkzW2Zc0MyxZw0nW/Rk9COgCixcvFieffHL713J2+Ytf/CJQCCCAQG0E5syZI84880zv+hBuvKnYsGSB4ALOgQceKN59990Wo/yirlixomTSZhZnWoY5riWm29Dk9lmfg4krM23osO2X9njN7GFqXQeBU089Vfzv//5vuyqcHNShV6gDAghIgWuvvVbIW818frp37y6mTp3qsynbIFCJQHABR51W1V/wWYlwzQr1Wd45adiRTczynIopaKiLD8QdW99XD1iEmJoNwA6vjhzLAwYMWGPhE0JOhw8Kmo9ADQSS3JL2ta99Tdx33301qDVVQMAuEHTA6dQFBnxuKfP5UsStmKbv7woaPuWlDSNxt8ClPaZPfdkGgTQC+vM4rDyURpF9EEAgL4Ek4Ua+W3DSpEmpi/6bv/mb1PuyIwJJBIINOJtssokYjLi4AAAgAElEQVR1+lSeuEe3sUmsLbbYon1rVRK8Mrb1CSs+SzLrdbXtE3cs12IBsgxXoPCZmXEdowx3yugMgT/+8Y/thv71X/91oY1Wb+uULwHt169fu7yrr75aHHzwwYWWz8ERQAABXSBJuMlD75FHHhE77LBDHofiGAjECgQVcE4//XTx/PPPtxos73UfPny4sfGhv+gzbkUzW9BJE2ySBBHXttHntiWk1ZNDvtMI5CWQ93twbCsMqsE+qvu4cePEY4891m4Kt6rl1ascBwEEfAUIOL5SbNc0gaACju/zN6EHHDkI4561UZ9p0WdUTLea6c/kyOO7Hty3PVejl217viauHrYvmatOTftyUt/iBYoMOKaLCerv5Hg9/vjjxZIlSwg5xXc1JSCAgEGAgMOwCFUg2IAT9/xNiAHHdCubaVZGH8j6jEkUjpIM+DzDSJZyk+zLtghIAVPA8bkt1KTnulXUFubVl4DKbRYtWkTnIIAAAqUIEHBKYaaQCgSCDDjrrruumD59upWzCQEn7UmW2mjbrWppbvdKOyMTd2ua67a1Cr4PFNlhAllncOIuLNhuV9NncfRFBw444AAxduzYDusJmosAAlUIEHCqUKfMMgSCCTjy5Z7yJZ/yZ9SoUeLoo49udMCxXSHWf68+uxJ9pgcYfelkn4HlWrpZHkMtJ24lM/2EznYl26debINAngJZAk5cgIlbTEP9Pkbfm1/84hfiu9/9brtpP/7xjwWrDeXZ0xwLAQRMAgQcxkWoAsEEnIEDB4o333yz1U+uF3zWeQYnyQIB+qA0PSsTbVPETIrPDIxp8YBQv0y0q3kCSQOO7Rky20UE1wUI9Tsk3x7+85//vI3IogPNG0/UGIGmCRBwmtZj1NdXIJiAo35JZ86cGbvsc50DTjQzIv+/aeUl0+dpbjkzDRDTleWoHqZZF99ZG1tZzOT4fk3ZziZgu5XTdYtn9LkacOSLgW3fOf17Z/rO6WHGdwENtW2HHnqoWLZsGSGHIY8AAggggEAGgSADjusFn00IOKbVzaJ+jjupU8dC3G1mceEiy2yPz6xOhvHKrghkFlDDifqAv7wwEgUZPezr3z19tlQPRr4XHUzfF7VO8qV6Tz/9dOY2cwAEEEAAAQQ6SSCIgPP222+Lgw46qNVvG264oZg2bVpsH+YVcFxXifVK2B5INlU2bnUzW4jwCReuW2n0usTVo5O+KLQ1TIGkt6ipQSf6b9PMje3WTJ/vqP4S0EsvvVQMHTo0zA6gVQgggAACCBQgEETAUW9Pe+qpp4Q8QYj7ySvg6Fd7XWWmuaXLFkjUsmwzNbZFAJKOI5+TMtcx8ziGqww+R8DnO6hu4wo4cbeiyeNkme2Mq+tll13WepYw+uF5HMY2AggggAAC/gLBBRzX8zdRKNFPbOLuvffndG9pW3kpblYmOqorsMQFnbiapd3P3Vq2QKAaAX221PS9kzXTn8GJQov+nYv+bvi0Jq8wL18C+sYbbxByfNDZBgEEEEAAAUUguIDjev4m74Cjhw7TiZH6O9Po029nSXKCpG+bZpaIbwQCIQnoK51F33l9NlT+b1PAUS3ivk9lfNfU53FkvZjJCWmk0hYEEEAAgaIEGh9wVq1aJf7hH/6h5bPNNtuIe+65x8tKvlwv+lm9evUa+/g8WxN3hVg/oXKFHp9AExdkXCdkPseXx/DdzgacdX+vjmMjBNQrNOusY1z5zLUQRzRW9TDkeubM9mxNHt8fU8fKv1P9+/dvf9SzZ08xYcIExgACCCCAAAIIxAg0PuDccsst7X/wTz31VDF8+PDYDvcJL3EHSLK/KQSZwojrpMp3BPsEDJ9tijpZ820H23WmgO02MtsFA5OSaXVAdeYmSUApY4bGp6dfffVVMXr06PamchGVbbfd1mdXtkEAAQQQQKAjBRofcNQFBmbPni1Wrlxp7UjXrEuSEWC6DSba3/SsTNyJVVy5+m01SerItgg0VUBdhtn2vfIJOLbvneu2UN8LAWX5nnHGGeLll19uF8etamXJUw4CCCCAQBMFggo4pudvksy46CdSvh2a5J0X8pj6VWbTFWZT2aYrynEnYnW5Au3ryHadJRB3G5lpVlPV0Wd75GfR90jfLvosy4podegZnsepQy9QBwQQQACBJggQcP6/l2zvqFFPmlwnSOqJVF06n5BTl57ozHq4vlemmZroIkDc7KVrRjTuokGTZ0XVkNO9e3cxderUzhxYtBoBBBBAAIEYgUYHnDFjxognn3yy1bwBAwYI+b+T/Nju+Y+7/Sw6+YorxzSrkuaWF9dtNEna6to2Tf1cx+RzBEwCPjM3prEfHUsPRabZHLXckMa2/hLQIUOGCPnOHH4QQAABBBBA4C8CjQ44ffr0EZ9++mmrNerzN3G3pUWfyROF6EquvoqafiIV/W/XiZLtyrDrarNtQLrKYyAj0AQB1yyO2gbTRQfTwgFyH9v3I8n3zXUxo46+9913n7jzzjvbVeN5nDr2EnVCAAEEEKhSoNEBR11g4NlnnxVqUIm79UWCm170qZ/s2E6s4k6ufMKKK7i4Pq9ywFA2Aq4LCNH3w1fKFjJsz9kk+Z666qDe8iX/hjTlZ9iwYeKdd94h5DSlw6gnAggggECpAsEEHLnAgGmVNNPJltxODziRuuuZG1Pv2J5zKSOolFFGqSOSwhov4DsrkmSxDdMzNUlmamyoTQ04sj1q3ddff30xf/78xo8dGoAAAggggEAeAo0NOMuXLxd77rlny+BLX/qSmDx58loe6qIA+smQLeCoQcc0g6MHiqQnWWUEkjLKyGPwcYxmCOjfI1utbbeiRRcZfGZk9G19FvbIotjkgKO/BHSXXXYRkyZNysLBvggggAACCAQh0NiAM2LECCFfgCd/5EO2/fr1M3aI6YFkuaEr4JgO5goOWT8PYkTRiOAEXLekqSFfbbweTtTZ0Wi7PG8DTQPf5IAj2/u73/1OnHjiie2mP/DAA+KrX/1qGgr2QQABBBBAIBiBxgYc/fmb6ORJv8VM7Sk1gMTdohZ3pdl0O5r+O9PJmyv8yH1sixQEM9poSKMF4p5rM4Uc2y1oEiHpzIzP9ycNbtMDjmzzxRdfLObNm9duPosOpBkJ7IMAAgggEJJAEAFn5syZ7T6x3UKmd5rvIgN5nljleayQBiFtqVbA9OyaPttiCv1qKNdbEHe7WrRtHb4PIQQc6clLQKv9DlE6AggggEC9BBofcDbccEMxbdq0NRYYiLvtJeL3uUUtrxOwvI5Tr6FDbUITiLsVTW2rOpNjugXUtuhGnYJNVJdQAo7sh3333bfdTTvssIN45JFHQhuitAcBBBBAAAEvgUYGnEsuuUT8+Mc/bjXwggsuEAcffHDrv5MECVfASXIsXTruVrMsx/XqUTZCIEYgbrYmzWICrpkd28UGVwgqqxNDCTjSq2vXrqJv375tOhl4brjhhrIoKQcBBBBAAIHaCDQy4MiTkvfff7+FqL/gM05WDR6ugFObHqIiCOQg4Ds7ExXlCi5yO305aNuiAj4zqjk0MdUhQgo4EuA///M/xb/+67+2LXgeJ9WwYCcEEEAAgYYLNDLgqAsMyOdvTDMmtpmS6PcEnIaPXKqfSMA0cyMPEPesjV5A3KpopkUDElWwoo1DCziScejQoeK9994j5FQ0pigWAQQQQKB6gSACjo0x7nYwU8Dh9rHqByQ1WFvANftiu+3MtRqgzVq/Vc224pnc3zSLEwUn07M6devfEAOONOYloHUbadQHAQQQQKBMgcYFnP/+7/8WJ5xwQsto0003FVOnTm39t7pMrc8tMczglDnMKCsvAVfYcYUW/XNbCIrCi77semgXAUINOLwENK9vHMdBAAEEEGiiQOMCjnp72pw5c8TKlSuN7q53ypx00knt/e6+++4m9h117iCBuGCjr2QWsdhuG3O9y8nGGlq4ke0cOXJku7kTJ04MakT94Q9/EMcee2y7TY8++qjYfvvtg2ojjUEAAQQQQMAk0OiAo77/Jmpc3HtwQjxBY1iHLxC38pmr9abwY1otzWe1M1dZfF4/gYsuukjMnz+/XTEWHahfH1EjBBBAAIH8BRofcJLemuYiJAS5hPg8i4DrFjNXmLHN1sg6ufaN6k2YydKDzdtXLqO/fPlyQk7zuo4aI4AAAgikFGhUwFm6dGn7PQ877rijmDBhQqvZhJKUvc9uhQv4Bpqk29m2N83OROFHb2zcu2j4ThU+NEorQI4J9SWgm2++uXj22WdLK5+CEEAAAQQQKFugUQHn8ssvby8qcPHFF4sDDjggNtz4nKT5bFN2p1BecwRcwcTVEtezNfqzZKYZS9szNVGwUfeJ6uOzEIer7nzeHIEuXbqIfv36tSssn0H83ve+15wGUFMEEEAAAQQSCDQq4KgLDMgXfK5atarVVEJKgh5n09oI2GZbTMHEtlRzkudpatNwKlKJwGOPPSZuuOGGdtk8j1NJN1AoAggggEAJAo0NOKYFBkrwoggErAK+szFqgIkOZlsMIArw+nZ6JfTlnOkmBEwChx56qFi2bBkhh+GBAAIIIBC0QKMDjmnmxnc2h/fgBD2uC22cz21ptgf+XauaRRVXA0sUiNRG6beq+Y77QmEaePBQ34MT1xUDBgxoL6/frVs3sWDBggb2HFVGAAEEEEDALtCYgCPf5/Dyyy+3WjJs2DBx+umnZ+pXAk4mPnb+fwHXqmZyM/U5GtNMi+udTbalz23P59A5/gKhBxxTGNdfArrNNtuIxx9/3B+NLRFAAAEEEKi5QGMCjv78jXzBZ5YHpQk4NR+ZNaiea6UynyqajqE/T2MLPa7xzayNTw/EbxN6wLG1/s033xRHH310++OnnnpKfOlLX8oOyhEQQAABBBCogUAjA45c4lS/hSepJQEnqRjb6wJxQUVua/vcJ/SgXY5AJwUcfdydeuqp4le/+lUbmkUHyhlzlIIAAgggULxA4wKOXO706aefzixDwMlMGPQBXLM36udxL85Ug0703/L/22ZfXLerBY1eQeM6KeCYeNVFB7p27SoWLlxYQS9QJAIIIIAAAvkKNCLgfPDBB+0X1W2//fZi4sSJmRUIOJkJG30A34UCojCihxO18aYFBaLPWd2s3sMklIATNysY9YDP8ziEnHqPV2qHAAIIIOAn0IiAM2TIEPH666+3WnTLLbeIv//7v/drnWUr+Q+9emLDktOZOBu/s23FM1fD4oKNaV/TCzldZfB5sQJ1DziuIB63yIVLLtpXLjqgvgT0jDPOEKNGjXLtzucIIIAAAgjUVqARAUddYCCP52+yBBx5MqD/rF69urYdTMX+LOA6UdSd9NvO0j7Qn3Y/+q0cgboHHJOCTyC3BR91XKuziw8//LC46aab2sXxPE45449SEEAAAQSKEWhcwMlrtiXtLWrqfrJLjjvuOPHtb3+7mN7hqIUJuAJP3DM2+m1nviHGd7vCGs2B1xJoYsCJ60bXrWpx4/pb3/qWWL58OSGH7wkCCCCAQOMFah9wPv30U9GnT58W9KabbiqmTp2aCzoBJxfG2h3EdYKnVth1i5nPe2YILbUbAokqVIeAkzRsm1aQtI17iZFkjB544IHtl4Cuv/76Yv78+Yk82RgBBBBAAIE6CNQ+4MgXej7//PMtq2uvvVb06tUrFzcCTi6MmQ/iOrlLU4AtuJgCS1zgkZ/pSz0nPWFMU3/2KU+gDgHH1Vp1DEZhRf3/pjGs34pmW+lPL1tu179///aveQmoq3f4HAEEEECgjgK1Dzh77bWX+OSTT1p2s2fPFqtWrcrsmOUZHG5Ry8yf+wFcISku8KjPKtieTzCdHOonmrk3igOWIlB0wHGNTVsjbfuZxmjcuE0zTt955x1x5JFHtqsmZ827d+9eSn9QCAIIIIAAAnkI1D7gqAsM5PX8jYQbMGBA2y/Je3UIOHkMu/hj6M8JmJZajnvRq22BANs7ZlyrmyW5xad4HUrIU0DekhX9zJgxI89Dex/LNF7lzvrMjfo7/b+jwnxnalyVky8Bfe2119qbseiAS4zPEUAAAQTqJNCxASdtJ9gCjjyxuP/++4VcjUj+rLfeeuLBBx8UK1asSFtUx+xnuyodF2J0nLhQpJ78pbmi3TEdQUMrF1BnFE1jPPpdGaFbXXRA1mvRokWV+1ABBBBAAAEEfARqHXCeeuopceGFF7baseWWW7YCQ9U/poAzcuRIoV4JVusoF0Z49NFHWw/68uMv4LpFRz/Bs/mabkFzzdj415ItEXAL+NymZgrormdvTM+HuWvjv4X+PA6LDvjbsSUCCCCAQLUCtQ446u1pc+bMaa/uUyWZHnB865Ln7XW+ZdZ1O9utN7K+elBxXdFWbzvzuQVNNWE2p64jJNx6mcZzXreVFaGmvwT0e9/7njjppJOKKIpjIoAAAgggkJtAYwJOXQJC2oDzxBNPiHXXXTe3jqvbgXyuUvvUWb9dTb+yrYcg35NDPQj57udTZ7ZBwCTgepbMtqqfadaxSuF///d/F3fccUe7CgsXLhRdu3atskqUjQACCCCAQKwAASfhALEFnLlz57aet5EnJ9dff72YNm3aGkfebrvtxKRJkxKWFv7mcbei6Uvh6le/TWEofDFaWCcB2xg0PSNjC9m2mcc6tXPYsGHi7bffbleJRQfq1DvUBQEEEEBAF6htwPnjH/8oDjnkkFZ9d9llFzFu3Lha9J4p4Dz77LNr3Vo1ZMgQ8eGHH65R57rMQuUBmWbGxjfM6M8WmG4lS3JSWMYD2XmYcozmCphuu5StsT1HE33WpBbvu+++7ep269ZNLFiwoEnVp64IIIAAAh0kUNuAc/bZZ4tZs2a1uuKGG24Qu+66a67dMn369PbxBg4c6H1sPeDsvvvuYuzYsWvtL+9dV08I5AYhBJykwcYWVqSH7RkY23M4OrJp+WjvjmRDBIQQDz30UNvhiCOOWMMkLrRE41dHNN1SqW7b5Fsj9UUH5N/kiRMnMo4QQAABBBConUBtA466wIAMOqtXr84NT/5Drb/gz3eVsyTvwdG3DSHgyE6wnaTFvV1dDzRRZ2Y94WN2JrevRSMPFPe8ius7LfdVL0LIvzN6aPZZxEKFC308vvnmm2LEiBHtJt9zzz3iG9/4RiPHDpVGAAEEEAhXoBEBJ+9gQMBZc0AnnZUxfR1Mq0PZvjamWR01OIV+khjun5N6tcxnXOsXOtTgHReQTLeedUrQkbPr6jM4PI9Tr3FPbRBAAAEEhCDgCCFMz9DYBkcnzeD4nCCaZmJMD1PH3Y6mBx6+mAi4BOLGputZL3XMqjM48u+AKeDos0SsyCfEoYceKj7++OO2FyHHNWL5HAEEEECgTIFaBpxBgwaJJUuWtBxOO+00MXz48FxNmMExc7oCTdwqZvKIPu+w0W9JY7Ym16HdcQdzjVkXiDqDE92iZrptUh+njFuxxu19G2ywgZg3b56Lm88RQAABBBAoRaCWAUd9/mb27Nli1apVuWIQcOI5TSeNrltyoiPqMzWcCOY6dDmYQ8C2MIDcTQ0u0bg0PYMTF3AYz3/pAP0loGeddZY48cQTGaMIIIAAAghULlD7gJPk9jFfzTwDzrHHHitOPvlkY9F1XmTAFmJMQUU9OXQ9hJ110QDfPmQ7BGwCtllCUzgx3aLGGPYfWz/60Y/Eww8/3N5BzuLI2Rx+EEAAAQQQqFKg1gFn3XXXFU888UTuPqEFnLir1nEngaZbykwBxjZ7Y3s/Dbeh5T5kOWCMgGl86iv66c/RyMPJbfRb1IBOLjBy5Ejx29/+tr0jz+MkN2QPBBBAAIF8BWoXcBYvXiyGDh3aauXXv/51Ia8Q5v1TRsDRy5BtyHs1OJNL3APW0UmdKRDpz9fIbeMe/k/yos28+4/jdaaAz/M26ja2UBPpyc/1W9Q6UzZ7q/V3fhFysptyBAQQQACB9AK1CzgDBgwQ77zzTqtFDz74oNhyyy3Tt86yZ9MDjs+JnhpQ9LCi3qpjWwrX5zYd28pouXcYBwxGQA8gcePP5z02UWi3jXF9rOvjmoCTz9CSrv37928fTL4A+c4778zn4BwFAQQQQACBhAK1CzjqAgNFPH8TnQjl9aJP2zM4Rc/g6LMrtqVrbbeh2W5rM83axK0gxZK5Cb9xgW7uCt1xn+ufxY1NNdDoIT7630mICThJtOK3lbepydvVoh8ZcGTQ4QcBBBBAAIGyBWodcIq6pSvLDE6ZHeQ6adTrYgs90Xa229Cik0bT1XXTbT5lGlBWuAKm8e0aw6ZQo/7ONl5tq58RcPIdX+ecc45YtGhR+6DcqpavL0dDAAEEEPATqFXAef/999sP/cpb0+QtakX8NCXg+LQ97pkD261otiDDErg+4myTNHirATtuEYs42bjnwbL0CAEni55530MOOUQsW7aMkJM/LUdEAAEEEPAUqFXAGTFihHj11VdbVb/jjjvEV77yFc9mhL+Zz0ml7STQdItZdNVb/n99wQAWEAh/PBXZQttYtc3YRHUxrXwWF7oJ5EX2YrZjq8Fx8803F/J2Y34QQAABBBAoS6BWAad3795ixYoVrbYX8YLPslB9ykkSWKLjxT2rYDpJVB+oJrT49ArbFClgukVSH9v6IgBF1odjFyegvwT0uOOOE+eee25xBXJkBBBAAAEEFIFaBZwyFhioqvd9Ao2sm34SaAs1+rZxz9fIbeMWCqjKhHKbJ5BksQC9dbbna/QgbtqO4NO8sXLbbbeJyZMntyu+YMEC0a1bt+Y1hBojgAACCDROoLYBp6gFBurQQ0lOEuOePYh7xiaundzaU4dR0Pw62MK47zNecbOKzDg2f3zIFsiZmzfeeKPdGBYdCKNfaQUCCCBQd4HaBJz7779fjB07tuW14447igkTJtTdzlg/1/MHcc8h6A9gRzMvUUFxz9jIbVxXuQk2jRxSlVfaNmZd76mJxqTpXTQEmMq7tbQK8BLQ0qgpCAEEEEDg/wVqE3DU29Oa8vxN0hM/PYDYHu43hRXTbI0aeLgFje90WQKu2y3jZnDUsU3gLqvHqi1Hjgf1JaA9evQQU6ZMqbZSlI4AAgggELRALQNOGbendenSpd2xq1atyr2TXbehqQXawontBND0e04Wc+/Cjj6g69kvdcUzPdBIuKaMR/kwfPSzevXqju7zIhu/ZMkSIV+KHP3ceOONol+/fkUWybERQAABBDpYoCMDjjwh22+//drdLpcwTXK7TdLxYptp8TlJVK94R+U25eQxqRPbVyfgmpVRx2FI44/34JQ35i655BLx3HPPtQvkeZzy7CkJAQQQ6DSBWgScF154QYwePbpl36dPH3HVVVcV2g9JAo7rmRq1onGrP6m3oyW5nYxnFQodCh1zcN8Aowd92+xMBOd67qvuwASccnvogAMOEOqMOSGnXH9KQwABBDpFoBYBZ+TIkeJnP/tZy3zixIli++23L9TfFXD0ZWujq9dxq5bpAUbdRz0ZND1wLT8nyBTa5cEd3CewxI3BOBB1dTTTc2NNDzVq2wk45X81VPOtt95aTJ8+vfxKUCICCCCAQNACtQg46gIDs2bNEkXfC+8TcFwrmuknj6ZQFG0TBRjTKmgEm6C/X7VpXNIFMfSxqzbEtppfbRqboCIEnARYOW0qn3/s27dv+2g77bTTGu/LyakYDoMAAggg0MECtQs4ZSww4Ao4pivf6u9Mt+1EIcZ2Yhh31TukZxo6+LtUWdNd4SXuNktX+NaDe0izN7LtBJxqhu0TTzwhrrnmmnbhCxcuFF27dq2mMpSKAAIIIBCcQKMDju9tOnqv+QSctFesfcOK73bBjTgatIZAmjGcZB/bbIu6wEXasR5CVxJwqutFuaqaXF0t+uF5nOr6gpIRQACB0AQqDzhyNbP333+/5TpmzBhx0EEH5Wpsu7qtr6KmX8mOKuE7WxNtT3DJtfs65mBJQoseSNSxq45D+d+mGRc93IQ2K5Nk0BBwkmjlv63qL2dw5EwOPwgggAACCGQVqDzg5Pn8jR5GbEs/22Zw1Kvd+hLO+omj6eSRcJN1OLJ/XNCxPecVjUXTSn22Z7wYq38eawScar9z8j1E6vtweB6n2v6gdAQQQCAUgVoFHN/30UT4eiAxnehFV7fVz0wBJ9rO9cyBfsKYZMnnUAYN7ahewHd1M4JMfF8RcKofy3/605/E0KFD2xW59tprc5/Jr76V1AABBBBAoEyB2gScjTbaSEybNs2r7abbxkyzNXFhJe4WNa9KsBECBQvYZiSjcW0KL7aZx4Kr2tjDE3Dq0XVXX321ePLJJ9uV4XmcevQLtUAAAQSaKlBpwJk/f774zne+07KTy4ZefvnlrWcGTO+U8QGOu8VMn3kh4PiIsk1SAdezNK4Vz2R5pu+AKazHvTw2ab07dXsCTn16npeA1qcvqAkCCCDQdIFKA448ufjggw9ahjNmzBDyfmzXCaDptjT1pFDf33YbmyngqJ3JrT1NH9rV1d81hvWaxYX6uFvRCDjZ+5iAk90wryPIsd6/f//24bbaaishl5PmBwEEEEAAgaQClQYcdYEB0/M3tivZ+ks4425P0z+LThgffPDBttVRRx2V1I3tETAK2GZw1KAtd1QDtO2/owJMCwUQwPMZgPfee2/7QMcff3w+B+UoqQX0l4Duscce4rbbbkt9PHZEAAEEEOhMgdoFHNcJotpNtmcR4p5D0D/jRLEzB34ZrbbNJsqyTZ+pdWLxijJ6iDLqKDB79mxx2WWXtau2aNEi43Lndaw7dUIAAQQQqIdAZQHnpz/9qTjppJNaCttss42IrqTanqOJuExXwk2hx8VLsHEJ8XlSAdfzN+oYTnpstkegkwSGDRsm3n777XaTWXSgk3qftiKAAALZBSoLOAMHDhRvvvlmqwUPPfSQ+OIXv9j6b9tzBfptaVHTCSrZBwFHWFvAN6zoe7pW+FNnHeW+emCnLxBA4M8C6vNR8n8TchgZCCCAAAK+ApUFnEjf0scAABxhSURBVN13370dZuQtCatWrWrVWb/tLO5ZBXV7vcEEH98hwHaRQNJQ47uYgL5QAOIIIOAW0F8C2qNHDzFlyhT3jmyBAAIIINDxApUFHNsCA6bnaggrHT9OCwfwCTc+t0/KiqrPeUUhnDFceBdSQIAC77zzjjjyyCPbLZswYYLo2bNngC2lSQgggAACeQpUHnDWW2+99lKgvKQwz67lWCYB1zNc6j5xocd0K1q0L2GGsYdAfgJXXHGFmDlzZvuA3KqWny1HQgABBEIVqCTgXHfddeK+++5rme61117iyiuvXOPWtOiqd5HorvfgFFk2x663gHpLmW1JctuzNtyOVu++1WvHe3Ca0V+HHHKIWLZsGSGnGd1FLRFAAIHKBSoJOOrtafL5m9WrV7cgTLf2FHVVnIBT+dirrAK2W83iXrhZRuiuDKSDCybgNKPz9ZeAylozk9OMvqOWCCCAQBUClQec6AWfZV/5JuBUMdyKK9PnGZqodJ/FAVwhiNXPiuvLMo9MwClTO1tZ+ktAhwwZssb7crIdnb0RQAABBEISqEXAqQKUgFOFejVlxgUafdlmdaaGZ8Kq6a8ySyXglKmdvaynn35aXHXVVe0DMYuT3ZQjIIAAAiEKlB5wHn74YfGDH/ygZfmtb31LjBkzphJXAk4l7JkLtc3UmIKKWpjpuRrTrKEealgwIHOX1foABJxad0+7cur3Xv67sXz5ckJOM7qOWiKAAAKVCJQecIYPHy5ee+21VmMff/xxsdFGG1XScAJOJeypCvW5/SzuBZuuBQHUl8umqiA7NVaAgNPMrjvooIPEZ5991qp8t27dxIIFC5rZEGqNAAIIIFCIQOkBR11gYNasWe2XfRbSupiDEnDKFvcvzyfQxB1Nn82xLR5Q9nNf/gJsWZYAAacs6XzL0RcdIOTk68vREEAAgaYLVBpw5AIDVf0QcKqST1euHnpc/1uWot+WpgYfwk26fghtLwJOc3v0vffeE4cffni7AXfffbfYbbfdmtsgao4AAgggkJtAqQFn5cqVolevXu3KVxVw5MmtemJTVT1y68VADuRa3cz1/I1kML23hjATyAApoBkEnAJQSzzkueeeK1566aV2iSw6UCI+RSGAAAI1Fig14PTt21csXbq0xfHDH/5wjbBTthEzOPmK+95W5rOdHkjUB/31ABOFGkJMvv3ZKUcj4DS/p9WXgMq/A4sWLWp+o2gBAggggEAmgVIDTl2ev5FiBJxM4yaXnV0zMr6zMax0lkt3dORBCDj17XbTs3OmW1NlC/r3799uSNeuXcXChQvr2zBqhgACCCBQuEBlAafq28IIOIWPrbUKiHv4X25su0VNPZAtzBByyu/PEEok4NSrF6O/Afr/t/19iH4vt+/Xr1+7MUOHDhWXXnppvRpHbRBAAAEEShOoJOBsuumm4tFHHy2tkXpB8h9D+S6F6OeJJ56orC6dULDtqmvUdnWZZv2/1ROdTrCijeUKHHjgge0CZ8yYUW7hgZfmczuq6W+z/J06e2vaxjS7O336dHHttde2N3/hhRfEuuuuG7gyzUMAAQQQMAmUFnCmTp0qLr/88lYd5D3T559/Pj0SkIAtxKgvzlSba1u6WW7D8zQBDQyaEpyAK7j43noaN0tjmu1VIU3P4snPBw8eLD788MP2piw6ENzwo0EIIICAl0BpAadPnz7i008/bVVqzpw5YtWqVV4VZKP8BFwnJllLMp2wRIGFmZmsuuyPQDMFTLOwpllbvXX6RRD5uXrBxHYhZMCAAbwEtJlDhVojgAACuQmUFnDUBQaqfv4mN73ADxQXWKKTDVOAUT+LPtd/p/4+cEaah0DHCcRdTPG9EGILNKbn7dTf6c/jbLXVVoLbkDtuCNJgBBDocAECTocPgKTN9zlxiY6pXmHVb1XjNrSk8myPQHMF9FvO1JbYZnhMt736Liby/vvvi8MOO6xdzE033ST22Wef5gJScwQQQACBRAKlBBz1+ZsePXqICRMmJKokG5sFst5ylmR/2wpn+sPA6okMIYaRi0D9BZL8HfBtjX5xQ+7nO3NjWmAgzd+SMWPGiPnz57erzPM4vr3HdggggEDzBUoJOOoLPrk9rfhB43MikXct0pyA5F0HjocAAmsL2GZC4qzShB7bMzOm2Zrod0X/3TjooIPE8uXLCTl8MRBAAIEOEygl4NTpBZ9R/0Yrusn/fdlllzWy29OchLgaqp+kqLeEmBYK0I/newuJqx58jkAZApdcckm7mCuvvLKMIoMuw3ZxRTZa/6ys2V71JaDdunUTCxYsCLoPaBwCCCCAgBClB5w6zODIf1j1F/zFvXehyQPFJwSZbieJu+pa1tXXJrtT92YI8KLPtfvJNOMjt7KthKj+PbBdEFFLKfsiiL7owHHHHSfOPffcZgxQaokAAgggkEqg1IBT9Qs+1X+IOzng6FdO4160aRpVRd9WkmoksxMCKQQIOH9G870QYlssxLayWXTsFF2T6y4PP/ywuPHGG9vHlBfaNt9881zL4GAIIIAAAvURKDzgXHTRRUK+YVr+DBkyRJx55pmVtz7UGRzXSYrp9hHXw8Cys8q+4lr5AKECHSPQ5IBj+767/g7onWu7LVW98BHtY/pd9DdCDzN1+7sxcuRIsXjx4nbzWXSgY77mNBQBBDpQoPCAoz5/M3v2bLF69erKmesacJKemESQrv30EGOawSnrfvjKO58KIKAINDngmDrS9bfAp/NtixKofyPUvz36MesWbNT6qc/jyN8TcnxGBNsggAACzRMoNeDU4fmb6Cpjk25RS3PSYruNjPfRNO9LSo2LEwgt4KSRMs3gqLMx6vOJrr8racovex815Oy0005i8uTJZVeB8hBAAAEEChYg4AghZs2a1X6AtmDvTId33ZJiW8HINoOTqTLsjEAAAqEFHFdYkV2mz7DoAcb2bit93zrP1MQNzbffflsceeSR7U2uv/56sd9++wUwmmkCAggggEAkUGjAue2228Ttt9/eKmvYsGHiO9/5Ti3k63SLmu/sjC28RFdaTQsFqFdhTSc2tegMKoFAhQIhBxyVVf37Ef3etrhIXHc0NdTobeIloBV+6SgaAQQQKEGg0IAzePBg8cYbb7SaMWfOHLFq1aoSmuQuosqAYwo0cSHHtr3eSv3h31BORNy9yRYIpBdoSsCxPRejt9y0nX5xw7SUcydeDJGL3rz33nttQp7HSf89Yk8EEECgbgKFBpw6vuAz+oe8bs/gxAUZ0y0kcQsF1G2QUR8E6irQlIAT+SWd8VWDi/78XfRZJ18MUZ/H6dq1q1i4cGFdhyr1QgABBBBIIFBawKnLAgN1CDhxV2P1h3ht75cg4CQY5WyKgEWgjgHH9aydHlrUpukrnZmev4t7xqbTBor06devX7vZxxxzjDj//PM7jYH2IoAAAsEJFBZwli5dKvr27dsGI+D8+WV68se2KpHrSqp+a4ltRaPgRikNQqAggbICju8tZnpYMYUR20yM+rfF50JJtH2n/x259957xYQJE9r0ctGZzTbbrKARx2ERQAABBMoQKCzg9OnTR3z66aetNvzbv/2b+MpXvlJGe7zKyPMZHNuqRVFFXM/XqCcZroDj1Tg2QgABbwFXwPG9JcxWoOvvg2k/3xkc07M0thkc/rbED4nTTjtNvPLKK+2NeB7H+yvEhggggEAtBQoLOHV9/qbqXtBvLYvqwwlI1T1D+QhkE8gahtTSbasm2v5+ZKs5e0sBXgLKOEAAAQTCESgl4NTp9jTfrtNPMExXRvXbR6Jjx61kZLtiK39PyPHtHbZDoLkCPkHItuiI6/ZW/oZkGxdqyOnRo4eYMmVKtgOyNwIIIIBAJQKFBJzVq1eLnj17thq05ZZbiv/4j/+opHFlFWp64F+W7bq3nWdqyuohykGgGIE0D/XrNXEFnrhZG1vgKaa14R/1rbfeEkcddVS7oZdeeqkYOnRo+A2nhQgggEBgAoUEHPnMza233tqiOvroo8Wpp55aKzZ5wvDiiy8WWie55Ohuu+1WaBkcHAEE6iNgW0jAtLhIVGvbbK/aKmZlyu3jSy65RMydO7ddKM/jlOtPaQgggEAeAoUEnN69e4sVK1a06lenF3yqJxXqw8V5QOrH6NKli3jmmWeKODTHRACBAgRcMym2Il23k6m3u8pj6IFFXRXNNutLyCmgw2MOOWjQIPHRRx8RcsplpzQEEEAgN4FCAo66wEAdn7/RV1HLTVM5EAGnCFWOiUB9BOJmbEwv51UvsERBR/9dfVpHTdTncTbeeOM1ZnXQQQABBBCot0DHBBx9uVZ1BkcuYd2tW7fMPfXhhx+KJUuWtI5DwMnMyQEQSCWQZCbmC1/4QrsM+exgkh91tsUWaFy3rSUpj23LFZB9p74EdM899xTjx48vtxKUhgACCCCQSiD3gDNu3DgxadKkVmXkTM7111+fqmJF7qTP4MgXu8kf0wO7SRYCkMeNrvoRcIrsQY6NgF0gScAxvQfHFkpkia4VEvXQ41pohH6st8C0adPE2LFj25WUz+bI2Rx+EEAAAQTqLZB7wNl9993bQaGs52+SnNBEJymmE5so4KQ9KSHg1HuwU7vmCsR9x9N8/6MLGj4BJ/qbEe1jWjTA9Dcj69+T5vZWWDUfOXKkWLx4cbtRLDoQVv/SGgQQCFMg94BT1gs+fU9qbCcjrjeYR92d5OFeAk6YXxJaFa6A+ndg9uzZ7QUA1Af/1Zkb0wwNQSbc8RG1jJeAht/HtBABBMISKDTg5LHAgB5QfINN1E3qCkbqiYgecJIEGdsQkPfzR/dsc4taWF8UWhOegHpBQrZOBhx9lsbnQkcefzvC0w2vRWrI6d69u5g6dWp4jaRFCCCAQCACuQaclStXil69erVoinrBpy3gmB74jbvVzHcGJ0k/M4OTRIttEfATSHpRw3RU/UJH9LdBPWlVZ3DUYxBg/Pop9K3+9Kc/icMPP7zdzDPPPFPI29f4QQABBBCon0CuAWf06NHihRdeaLXytNNOEyNGjMi1xaYTHZ/Ao1dCv3IbLTKQtbLM4GQVZH8E/AR8n8mJWzBAlmS70OF7wYTw49dfoWx1ww03rDFzw/M4ofQs7UAAgdAEcg046vM38mpommVXfZdblR2h3r6mXqGVn7nuiy9iBoeAE9rXg/bUQcD2PTf9rTDdkmpqg20GJ9rW9jLOOnhQh2oF9t9/f7Fq1ap2JQg51fYHpSOAAALGf+c/V88SMhr5vuBTvaqa5Eqs7eQjTbUJOGnU2AeBagRcMzFqrWzbmsKP/ndAv1BSTWspte4C6q2NW2yxhZgxY0bdq0z9EEAAgY4SKGQGRz5gb/uDn+R+etvVWNNJSNJbRQg4HTXOaWygAqaLJabnbWx/H/RncAJlolk5C8jZ+r59+7aP2qNHDzFlypScS+FwCCCAAAJpBXILON///veFfCma/Bk1apQ49thjverkOhmxnZgkDTR6ZQg4Xt3DRgjkIuA7a+szE6NXyHbBQ26nP0ujLzxCwMmlezvyIC+99JI455xz2m3/yU9+IjbccMOOtKDRCCCAQN0Ecgs4Bx54oHj33Xdb7XO94NN0C4kKo76DQj8hyQuQgJOXJMdBwC3gWgzEdqes+vyNKdjI35metzNdADH9joDj7ju2sAuccsop4rXXXmtvwPM4jBYEEECgHgK5BRzTCz5tD/5HTc/jVrO0jASctHLsh0B6AZ+ZHD3UmEKOvvBA2hoRcNLKsV8kwEtAGQsIIIBA/QQKCTjyBZ+2WRrT6kSSpaiZGhs5Aad+g5EadY6AT9Ap40LI73//+zb6dttt1zkdQEtzE5BjOXrBszzojjvuKB566KHcjs+BEEAAAQSSC+QScP7whz+IQw89tF26HnBsDwInr25+exBw8rPkSAj4CthuOTM9i6cfs6jn8XzrznYI2AQ+/PBDMXjw4PbHZ511ljjxxBMBQwABBBCoSCCXgNO7d2+xYsWKVhOmTp0qNttss/YMju8DwGW3n4BTtjjlNUUgyUqHpjbZlmmOa7/ptjT9PTdyf9f7rZpiTD3DExg/fryYPHlyu2E8jxNeH9MiBBBojkAuAUd//43pdrOsq57lTUrAyVuU4zVZwLYke5Y2mZ7Bi7sVVf0bUbe/F1kc2LdzBAYOHCiWLVtGyOmcLqelCCBQU4HcA86sWbPWaGpdr7gScGo6IqlWLQSSzuL4zNr4BB6CTS26n0pkEFAXHdhggw3EvHnzMhyNXRFAAAEE0ghkDjjyatXee+/dKnvrrbdeY4o+TYXK2oeAU5Y05RQpkDSIZK2LT3m252nUix0Emaw9wf51FdBfArrLLruISZMm1bW61AsBBBAIUiBzwLnmmmvEAw880MI544wzxLBhwxoBpQacIircpUsX8cwzzxRxaI6JQO4CvsElKtj0fIzpM/m7sldIzB2HAyKQUOCnP/2pOPPMM9t7Pf/882K99dZLeBQ2RwABBBBIK5A54PTq1UusXLmyVb58wefq1avT1qW0/eQJl/7ugrwLJ+DkLcrxihbwWbo5btGQKMy4XtRbp9kb3oNT9Kjq3OMfc8wxYsmSJW0AFh3o3LFAyxFAoHyBzAFHXWCg/OpTIgIIIIAAAvUXkBcHFi1aVP+KUkMEEEAgAAECTgCdSBMQQAABBOovsMUWW4gZM2bUv6LUEAEEEGi4QKaAc/bZZwt91bSGe1B9BBBAAAEEChO4+uqrxcEHH1zY8TkwAggggIAQmQIOgAgggAACCCCAAAIIIIBAnQQIOHXqDeqCAAIIIIAAAggggAACmQQIOJn42BkBBBBAAAEEEEAAAQTqJEDAqVNvUBcEEEAAAQQQQAABBBDIJEDAycTHzggggAACCCCAAAIIIFAnAQJOnXqDuiCAAAIIIIAAAggggEAmAQJOJj52borAypUrRa9evdaoLm8Wb0rvUU8EEEAAAQQQQMBfgIDjb8WWDRYg4DS486g6AggggAACCCCQQICAkwCLTZsrQMBpbt9RcwQQQAABBBBAIIkAASeJFts2VoCA09iuo+IIIIAAAggggEAiAQJOIi42bqoAAaepPUe9EUAAAQQQQACBZAIEnGRebN1QAVfA+fzzz8XixYvFxx9/LL7xjW80tJVUGwEEEEAAAQQQQICAwxjoCAFbwJk0aZIYN26c0WD//fcX1113XUf40EgEEEAAAQQQQCAUAQJOKD1JO2IFTAGnZ8+e4qWXXordb9tttxXTpk1DFwEEEEAAAQQQQKAhAgSchnQU1cwmYAo4vkeU78+54447fDdnOwQQQAABBBBAAIEKBQg4FeJTdHkCcQHnxRdfFF26dGlVZvTo0eKFF15Yq2K8FLS8vqIkBBBAAAEEEEAgiwABJ4se+zZGwBRw1l9/fTF//nxjG775zW+u8fsxY8aI4cOHN6a9VBQBBBBAAAEEEOhUAQJOp/Z8h7XbtYqaznHnnXeKm2++eY1fM4vTYYOG5iKAAAIIIIBAIwUIOI3sNiqdVCBpwJHH12dxCDhJ1dkeAQQQQAABBBAoX4CAU745JVYgQMCpAJ0iEUAAAQQQQACBCgQIOBWgU2T5AgSc8s0pEQEEEEAAAQQQqEKAgFOFOmWWLkDAKZ2cAhFAAAEEEEAAgUoECDiVsFNo2QJJA45puWiewSm71ygPAQQQQAABBBBILkDASW7GHg0UMAWcbt26iQULFqzVmk8++UTstddea/x+/PjxYs8992xgy6kyAggggAACCCDQWQIEnM7q745tbdyLPi+88EIxYsSIlo2+cloExuxNxw4dGo4AAggggAACDRMg4DSsw6huOoG4gOM64lFHHSX+6Z/+ybUZnyOAAAIIIIAAAgjUQICAU4NOoArFC5gCzuGHHy4eeeSR2MJ33nlncf/99xdfQUpAAAEEEEAAAQQQyEWAgJMLIwepu4BtkYHPPvtM7LHHHsbq33333WK33Xare9OoHwIIIIAAAggggIAiQMBhOCDw/wJLly4Vq1evFptuuikmCCCAAAIIIIAAAg0VIOA0tOOoNgIIIIAAAggggAACCKwtQMBhVCCAAAIIIIAAAggggEAwAgScYLqShiCAAAIIIIAAAggggAABhzGAAAIIIIAAAggggAACwQgQcILpShqCAAIIIIAAAggggAACBBzGAAIIIIAAAggggAACCAQjQMAJpitpCAIIIIAAAggggAACCBBwGAMIIIAAAggggAACCCAQjAABJ5iupCEIIIAAAggggAACCCBAwGEMIIAAAggggAACCCCAQDACBJxgupKGIIAAAggggAACCCCAAAGHMYAAAggggAACCCCAAALBCBBwgulKGoIAAggggAACCCCAAAIEHMYAAggggAACCCCAAAIIBCNAwAmmK2kIAggggAACCCCAAAIIEHAYAwgggAACCCCAAAIIIBCMAAEnmK6kIQgggAACCCCAAAIIIEDAYQwggAACCCCAAAIIIIBAMAIEnGC6koYggAACCCCAAAIIIIAAAYcxgAACCCCAAAIIIIAAAsEIEHCC6UoaggACCCCAAAIIIIAAAgQcxgACCCCAAAIIIIAAAggEI0DACaYraQgCCCCAAAIIIIAAAggQcBgDCCCAAAIIIIAAAgggEIwAASeYrqQhCCCAAAIIIIAAAgggQMBhDCCAAAIIIIAAAggggEAwAgScYLqShiCAAAIIIIAAAggggAABhzGAAAIIIIAAAggggAACwQgQcILpShqCAAIIIIAAAggggAACBBzGAAIIIIAAAggggAACCAQjQMAJpitpCAIIIIAAAggggAACCBBwGAMIIIAAAggggAACCCAQjAABJ5iupCEIIIAAAggggAACCCBAwGEMIIAAAggggAACCCCAQDACBJxgupKGIIAAAggggAACCCCAAAGHMYAAAggggAACCCCAAALBCBBwgulKGoIAAggggAACCCCAAAIEHMYAAggggAACCCCAAAIIBCNAwAmmK2kIAggggAACCCCAAAIIEHAYAwgggAACCCCAAAIIIBCMAAEnmK6kIQgggAACCCCAAAIIIEDAYQwggAACCCCAAAIIIIBAMAIEnGC6koYggAACCCCAAAIIIIAAAYcxgAACCCCAAAIIIIAAAsEIEHCC6UoaggACCCCAAAIIIIAAAgQcxgACCCCAAAIIIIAAAggEI0DACaYraQgCCCCAAAIIIIAAAggQcBgDCCCAAAIIIIAAAgggEIwAASeYrqQhCCCAAAIIIIAAAgggQMBhDCCAAAIIIIAAAggggEAwAgScYLqShiCAAAIIIIAAAggggAABhzGAAAIIIIAAAggggAACwQgQcILpShqCAAIIIIAAAggggAACBBzGAAIIIIAAAggggAACCAQjQMAJpitpCAIIIIAAAggggAACCBBwGAMIIIAAAggggAACCCAQjAABJ5iupCEIIIAAAggggAACCCBAwGEMIIAAAggggAACCCCAQDACBJxgupKGIIAAAggggAACCCCAAAGHMYAAAggggAACCCCAAALBCBBwgulKGoIAAggggAACCCCAAAIEHMYAAggggAACCCCAAAIIBCNAwAmmK2kIAggggAACCCCAAAIIEHAYAwgggAACCCCAAAIIIBCMAAEnmK6kIQgggAACCCCAAAIIIEDAYQwggAACCCCAAAIIIIBAMAIEnGC6koYggAACCCCAAAIIIIAAAYcxgAACCCCAAAIIIIAAAsEI/B89qqUwCUADpgAAAABJRU5ErkJggg==;" vertex="1" parent="7">
                    <mxGeometry x="360" y="60" width="460" height="220.51" as="geometry"/>
                </mxCell>
            </root>
        </mxGraphModel>
    </diagram>
</mxfile>